# xmcd
#
# Track frame offsets: 
#        150
#        16617
#        29792
#        41280
#        53614
#        67487
#        79205
#        93772
#        106920
#        118687
#        133127
#        147290
#        160895
#        175502
#        188080
#        200102
#        212672
#        226622
#        239320
#        252825
#        266720
#        280620
#        294440
#        307360
#
# Disc length: 4295 seconds
#
# Revision: 3
# Processed by: cddbd v1.5.2PL0 Copyright (c) Steve Scherf et al.
# Submitted via: ExactAudioCopy v0.99pb3
#
DISCID=5810c518
DTITLE=Cannon's Jug Stompers - Complete Works, 1927-1930
DYEAR=1989
DGENRE=Blues
TTITLE0=Minglewood Blues
TTITLE1=Walk Right In
TTITLE2=Going To Germany
TTITLE3=Bring It With You When You Come
TTITLE4=Bugle Call Rag
TTITLE5=Prison Wall Blues
TTITLE6=Feather Bed
TTITLE7=Noah's Blues
TTITLE8=Wolf River Blues
TTITLE9=Madison Street Rag
TTITLE10=Viola Lee Blues
TTITLE11=Cairo Rag
TTITLE12=Last Chance Blues
TTITLE13=Mule Get Up In The Alley
TTITLE14=Pretty Mama Blues
TTITLE15=Money Never Runs Out
TTITLE16=Pig Ankle Strut
TTITLE17=Jonestown Blues
TTITLE18=The Rooster Crowing Blues
TTITLE19=Hollywood Rag
TTITLE20=Heart Breakin' Blues
TTITLE21=Ripley Blues
TTITLE22=Tired Chicken Blues
TTITLE23=Big Railroad Blues
EXTD=
EXTT0=Cannon's Jug Stompers
EXTT1=Cannon's Jug Stompers
EXTT2=Cannon's Jug Stompers
EXTT3=Cannon's Jug Stompers
EXTT4=Cannon's Jug Stompers
EXTT5=Cannon's Jug Stompers
EXTT6=Cannon's Jug Stompers
EXTT7=Cannon's Jug Stompers
EXTT8=Cannon's Jug Stompers
EXTT9=Cannon's Jug Stompers
EXTT10=Cannon's Jug Stompers
EXTT11=Cannon's Jug Stompers
EXTT12=Cannon's Jug Stompers
EXTT13=Cannon's Jug Stompers
EXTT14=Cannon's Jug Stompers
EXTT15=Cannon's Jug Stompers
EXTT16=Cannon's Jug Stompers
EXTT17=Cannon's Jug Stompers
EXTT18=Cannon's Jug Stompers
EXTT19=Cannon's Jug Stompers
EXTT20=Cannon's Jug Stompers
EXTT21=Cannon's Jug Stompers
EXTT22=Cannon's Jug Stompers
EXTT23=Cannon's Jug Stompers
PLAYORDER=
